<svg version="1.1" id="full_microfocus_logo" class="" xmlns="http://www.w3.org/2000/svg" xmlns:xlink="http://www.w3.org/1999/xlink" x="0px" y="0px" viewBox="0 0 144 34.9"
     style="enable-background:new 0 0 144 34.9;" xml:space="preserve">
            <style type="text/css">
                .st0 {
                    fill: white;
                }
            </style>
  <g id="mf-words">
                <polygon class="st0" points="58.7,15.1 58.7,0.2 55.9,0.2 50.7,7.6 45.6,0.2 42.7,0.2 42.7,15.1 45.6,15.1 45.6,5.3 49.8,11.5 51.6,11.5 55.8,5.3 55.8,15.1"></polygon>
    <polygon class="st0" points="66.2,15.1 69.1,15.1 69.1,0.2 66.2,0.2 	"></polygon>
    <path class="st0"
          d="M91.2,13.6v-3.3h-2.9v1.9h-8.8V3.1h8.8V5h2.9V1.7c0-0.9-0.6-1.5-1.5-1.5H78.1c-0.8,0-1.4,0.6-1.4,1.5v11.9 c0,0.8,0.6,1.5,1.4,1.5h11.7C90.6,15.1,91.2,14.5,91.2,13.6L91.2,13.6z"></path>
    <path class="st0" d="M113.3,15.1l-4.4-6h2.9c0.8,0,1.5-0.6,1.5-1.5v-6c0-0.9-0.6-1.5-1.5-1.5H98.7V15h2.9V9h3.6l4.4,6h3.7V15.1z M101.6,3.1h8.8v3.1h-8.8V3.1L101.6,3.1z"></path>
    <path class="st0"
          d="M135.4,13.6V1.7c0-0.9-0.6-1.5-1.5-1.5h-11.7c-0.8,0-1.4,0.6-1.4,1.5v11.9c0,0.8,0.6,1.5,1.4,1.5H134 C134.8,15.1,135.4,14.5,135.4,13.6L135.4,13.6z M123.7,3.1h8.8v9.1h-8.8V3.1L123.7,3.1z"></path>
    <polygon class="st0" points="57.3,22.7 57.3,19.7 42.7,19.7 42.7,34.6 45.6,34.6 45.6,28.7 54.3,28.7 54.3,25.7 45.6,25.7 45.6,22.7"></polygon>
    <path class="st0"
          d="M75.9,33.2v-12c0-0.9-0.6-1.5-1.5-1.5H62.8c-0.8,0-1.4,0.6-1.4,1.5v11.9c0,0.8,0.6,1.5,1.4,1.5h11.7 C75.3,34.6,75.9,34,75.9,33.2L75.9,33.2z M64.3,22.7H73v9.1h-8.8v-9.1H64.3z"></path>
    <path class="st0"
          d="M95.8,33.2v-3.3h-2.9v1.9h-8.8v-9.1h8.8v1.9h2.9v-3.3c0-0.9-0.6-1.5-1.5-1.5H82.6c-0.8,0-1.4,0.6-1.4,1.5v11.9 c0,0.8,0.6,1.5,1.4,1.5h11.7C95.1,34.6,95.8,34,95.8,33.2L95.8,33.2z"></path>
    <path class="st0" d="M115.6,33.2V19.7h-2.9v12h-8.8v-12H101v13.4c0,0.8,0.6,1.5,1.4,1.5h11.7C115,34.6,115.6,34,115.6,33.2 L115.6,33.2z"></path>
    <path class="st0"
          d="M135.4,33.2v-5.9c0-0.8-0.6-1.5-1.5-1.5h-10.2v-3.1h8.8v1.6h2.9v-3c0-0.9-0.6-1.5-1.5-1.5h-11.7 c-0.8,0-1.4,0.6-1.4,1.5v5.9c0,0.8,0.6,1.5,1.4,1.5h10.2v3.1h-8.8v-1.5h-2.9v3c0,0.8,0.6,1.5,1.4,1.5h11.7 C134.8,34.6,135.4,34,135.4,33.2L135.4,33.2z"></path>
            </g>
  <g id="registered-trademark">
                <path class="st0"
                      d="M140.3,5.8c-1.5,0-2.7-1.2-2.7-2.7s1.2-2.7,2.7-2.7s2.7,1.2,2.7,2.7S141.8,5.8,140.3,5.8z M140.3,0.6 c-1.4,0-2.5,1.1-2.5,2.5s1.1,2.4,2.5,2.4s2.4-1.1,2.4-2.4C142.7,1.7,141.7,0.6,140.3,0.6z M141,4.8l-0.7-1.5h-0.6v1.5h-0.4V1.4h1 c0.8,0,1.1,0.3,1.1,1c0,0.5-0.2,0.8-0.7,0.9l0.7,1.5H141z M139.7,2.9h0.6c0.5,0,0.7-0.2,0.7-0.6s-0.2-0.6-0.7-0.6h-0.5v1.2H139.7z"></path>
            </g>
  <g id="mf-mark">
                <polygon class="st0" points="34.5,0.2 34.5,28 27.8,28 27.8,6.9 6.7,6.9 6.7,0.2 	"></polygon>
    <polygon class="st0" points="27.8,28 27.8,34.7 0,34.7 0,6.9 6.7,6.9 6.7,28 	"></polygon>
            </g>
</svg>
